# xmcd
#
# Track frame offsets:
#	150
#	12562
#	26354
#	40796
#	52751
#	68012
#	86632
#	101844
#	115720
#	131400
#	145307
#
# Disc length: 2135 seconds
#
# Revision: 0
# Processed by: cddbd v1.4PL0 Copyright (c) Steve Scherf et al.
# Submitted via: audiograbber 1.81.03
#
DISCID=8908550b
DTITLE=Various Artist - For the Long Haul, Song for the Open Road, Vol 1
DYEAR=2002
DGENRE=Bluegrass
TTITLE0=Drivin' Trains
TTITLE1=Truck Driver's Queen
TTITLE2=Alone in the Still of the Night
TTITLE3=18 Sheels Roll On
TTITLE4=Diesel Smoke on Danger Road
TTITLE5=18 Wheels Hummin'
TTITLE6=Roll On Rubber Wheels
TTITLE7=Who's Gonna Run the Truck Stop in Tuba City (When I'm Gone)
TTITLE8=Ravishing Ruby
TTITLE9=White Frieghtliner
TTITLE10=ENdless Black Highway
EXTD=
EXTT0=
EXTT1=
EXTT2=
EXTT3=
EXTT4=
EXTT5=
EXTT6=
EXTT7=
EXTT8=
EXTT9=
EXTT10=
PLAYORDER=
